# xmcd CD database file
#
# Track frame offsets:
#	150
#	28251
#	62817
#	99754
#	133847
#	145780
#
# Disc length: 2693 seconds
#
# Revision: 0
# Processed by: cddbd v1.5.2PL0 Copyright (c) Steve Scherf et al.
# Submitted via: CDex 1.70beta2
#
DISCID=500a8306
DTITLE=Perujazz - Mundo Nuevo [CD 1)
DYEAR=2007
DGENRE=Jazz
TTITLE0=King Kong
TTITLE1=Chosica
TTITLE2=Criollo Futuristica
TTITLE3=El Plebeyo
TTITLE4=Canto de Tabores
TTITLE5=Santero
EXTD=YEAR: 2007
EXTT0=
EXTT1=
EXTT2=
EXTT3=
EXTT4=
EXTT5=
PLAYORDER=
